<?xml version="1.0" encoding="utf-8"?>
<!-- Generator: Adobe Illustrator 25.4.1, SVG Export Plug-In . SVG Version: 6.00 Build 0)  -->
<svg version="1.1" id="Warstwa_1" xmlns="http://www.w3.org/2000/svg" xmlns:xlink="http://www.w3.org/1999/xlink" x="0px" y="0px"
	 viewBox="0 0 256 256" style="enable-background:new 0 0 256 256;" xml:space="preserve">
<style type="text/css">
	.st0{fill:#23252C;}
	.st1{fill:#F6A821;}
</style>
<path class="st0" d="M18.4,142.8c1.4,0,2.7-0.3,3.9-0.8c1.2-0.5,2.3-1.4,3.4-2.6l4.8,5c-1.6,1.7-3.5,3.1-5.7,4
	c-2.2,1-4.5,1.4-6.8,1.4c-2.2,0-4.4-0.4-6.3-1.2c-2-0.8-3.7-1.9-5.1-3.4c-1.4-1.4-2.6-3.1-3.4-5c-0.8-1.9-1.2-4-1.2-6.3
	c0-2.2,0.4-4.3,1.2-6.3s2-3.6,3.4-5.1c1.4-1.4,3.1-2.6,5.1-3.4c2-0.8,4.1-1.2,6.3-1.2c2.4,0,4.8,0.5,7,1.4c2.2,1,4.1,2.3,5.7,4
	l-4.9,5.2c-1.1-1.2-2.3-2.1-3.5-2.8c-1.3-0.6-2.6-0.9-4.1-0.9c-2.3,0-4.3,0.9-5.9,2.6c-1.6,1.7-2.4,3.8-2.4,6.4
	c0,2.5,0.8,4.6,2.4,6.3C14.1,141.9,16.1,142.8,18.4,142.8z"/>
<path class="st0" d="M45.9,149.8c-3.3,0-6-0.9-8.1-2.6c-2.1-1.7-3.1-4-3.1-6.8c0-2.9,1.1-5.2,3.4-6.8c2.2-1.6,5.3-2.5,9.2-2.5
	c1.3,0,2.5,0.1,3.8,0.3c1.3,0.2,2.5,0.5,3.7,0.9V130c0-1.8-0.6-3.1-1.6-4c-1.1-0.9-2.7-1.4-4.8-1.4c-1.3,0-2.7,0.2-4.2,0.6
	c-1.5,0.4-3.2,1.1-5.2,1.9l-2.9-5.9c2.4-1.1,4.7-1.9,7-2.5c2.3-0.5,4.5-0.8,6.7-0.8c4.1,0,7.3,1,9.6,3c2.3,2,3.4,4.8,3.4,8.4v19.9
	h-8v-2.1c-1.3,0.9-2.7,1.6-4.1,2C49.3,149.5,47.7,149.8,45.9,149.8z M42.5,140.2c0,1.2,0.5,2.1,1.5,2.8c1,0.7,2.4,1,4.1,1
	c1.3,0,2.6-0.2,3.7-0.5c1.1-0.3,2.2-0.8,3.1-1.4v-4.6c-1-0.4-2-0.7-3.1-0.9c-1.1-0.2-2.2-0.3-3.4-0.3c-1.8,0-3.3,0.3-4.3,1
	C43,138.1,42.5,139,42.5,140.2z"/>
<path class="st0" d="M78.5,106.2v43h-8.1V108L78.5,106.2z"/>
<path class="st0" d="M94.3,106.2v43h-8.1V108L94.3,106.2z"/>
<path class="st1" d="M156.9,149.2h-7.8l-8.4-30.7h7.7l5.1,19.9l6.1-19.9h6.8l6.1,19.9l5.1-19.9h7.5l-8.5,30.7h-7.7l-5.9-19.6
	L156.9,149.2z"/>
<path class="st1" d="M215.7,145.4c-1.9,1.5-3.8,2.7-5.8,3.4c-2,0.7-4.2,1.1-6.6,1.1c-2.3,0-4.5-0.4-6.5-1.2c-2-0.8-3.8-1.9-5.2-3.4
	c-1.5-1.4-2.6-3.1-3.5-5c-0.8-1.9-1.3-4-1.3-6.3c0-2.2,0.4-4.3,1.2-6.2c0.8-1.9,1.9-3.6,3.3-5.1c1.4-1.4,3.1-2.6,5-3.4
	c1.9-0.8,4-1.2,6.2-1.2c2.2,0,4.2,0.4,6,1.3c1.9,0.8,3.5,2,4.8,3.4c1.4,1.5,2.4,3.2,3.2,5.2c0.8,2,1.1,4.2,1.1,6.6v2.1h-22.9
	c0.5,1.9,1.6,3.5,3.2,4.7c1.6,1.2,3.4,1.8,5.5,1.8c1.3,0,2.6-0.2,3.8-0.6c1.2-0.4,2.2-1,3-1.8L215.7,145.4z M202.4,124.7
	c-1.8,0-3.4,0.6-4.8,1.7c-1.3,1.1-2.3,2.6-2.8,4.5h15c-0.5-1.8-1.4-3.3-2.8-4.4C205.7,125.3,204.2,124.7,202.4,124.7z"/>
<path class="st1" d="M255,133.9c0,2.2-0.4,4.3-1.2,6.2c-0.8,1.9-1.9,3.6-3.4,5c-1.4,1.4-3.1,2.5-5,3.3c-1.9,0.8-4,1.2-6.2,1.2
	c-1.5,0-3-0.2-4.5-0.6c-1.5-0.4-2.8-1-4-1.8v2.1h-8V108l8.1-1.8V121c1.2-0.9,2.6-1.6,4-2.1c1.5-0.5,3-0.7,4.6-0.7
	c2.2,0,4.2,0.4,6.1,1.2c1.9,0.8,3.6,1.9,5,3.4c1.4,1.4,2.5,3.1,3.3,5C254.6,129.7,255,131.7,255,133.9z M238.1,125
	c-1.5,0-2.8,0.2-4.1,0.7c-1.3,0.5-2.3,1.2-3.2,2.2V140c0.9,0.9,1.9,1.6,3.2,2.1c1.3,0.5,2.6,0.8,4.1,0.8c2.5,0,4.6-0.9,6.4-2.6
	c1.7-1.7,2.6-3.8,2.6-6.3c0-2.5-0.9-4.6-2.6-6.3C242.7,125.9,240.6,125,238.1,125z"/>
<path class="st0" d="M133.1,118l-31.3,11.1l13.3,6.8l6.8,13.3L133.1,118z M114.1,129.6l11.3-4l-4,11.3l-2.5-4.8L114.1,129.6z"/>
</svg>
